<svg xmlns="http://www.w3.org/2000/svg" width="231.881" height="48" viewBox="0 0 231.881 48"><path d="M66.977,32.932l.57,4.273a32.084,32.084,0,0,1-9.828,1.139c-4.7,0-8.119-1.282-9.97-3.7C45.755,32.22,44.9,27.947,44.9,21.822c0-5.982,1-10.255,2.849-12.819,1.994-2.421,5.27-3.7,9.97-3.7a34.3,34.3,0,0,1,9.116,1l-.57,4.415c-2.706,0-5.555-.142-8.546-.142-2.706,0-4.415.855-5.412,2.421s-1.424,4.558-1.424,8.973.427,7.407,1.424,8.973,2.706,2.421,5.412,2.421A79.05,79.05,0,0,0,66.977,32.932Z" transform="translate(19.053 2.249)" fill="#323e48"/><path d="M74.452,11.9c3.988,0,6.979.855,8.546,2.706s2.564,4.843,2.564,9.258S84.707,31.271,83,32.98c-1.709,1.852-4.558,2.706-8.546,2.706-4.131,0-6.979-.855-8.688-2.706S63.2,28.137,63.2,23.864s.855-7.407,2.564-9.258S70.464,11.9,74.452,11.9Zm0,4.415c-2.136,0-3.561.57-4.273,1.567s-1.139,2.991-1.139,5.982c0,2.849.427,4.843,1.139,5.84s2.136,1.567,4.273,1.567c1.994,0,3.418-.57,4.131-1.567s1.139-2.991,1.139-5.84-.427-4.843-1.139-5.982C77.871,16.885,76.589,16.315,74.452,16.315Z" transform="translate(26.818 5.05)" fill="#323e48"/><path d="M87.258,12.512l.427,3.276c3.561-2.706,6.694-3.988,9.828-3.988a6.3,6.3,0,0,1,4.558,1.567c1.139,1.139,1.567,2.564,1.567,4.7v16.95H98.083v-15.1a3.768,3.768,0,0,0-.57-2.564,2.248,2.248,0,0,0-1.852-.712,8.335,8.335,0,0,0-3.134.712,29.477,29.477,0,0,0-4.273,2.136V35.159H82.7V12.512Z" transform="translate(35.092 5.007)" fill="#323e48"/><path d="M106.358,12.512l.427,3.276c3.561-2.706,6.694-3.988,9.828-3.988a6.3,6.3,0,0,1,4.558,1.567,6.432,6.432,0,0,1,1.567,4.7v16.95h-5.555v-15.1a3.768,3.768,0,0,0-.57-2.564,2.248,2.248,0,0,0-1.852-.712,8.335,8.335,0,0,0-3.134.712,29.478,29.478,0,0,0-4.273,2.136V35.159H101.8V12.512Z" transform="translate(43.197 5.007)" fill="#323e48"/><path d="M156.459,30.6l.57,3.7a23.219,23.219,0,0,1-8.261,1.424c-3.988,0-6.837-.855-8.546-2.706-1.709-1.709-2.421-4.843-2.421-9.258s.855-7.407,2.564-9.258c1.709-1.709,4.558-2.706,8.546-2.706a20.462,20.462,0,0,1,7.834,1.282l-.712,3.561c-1.567,0-3.561-.142-6.267-.142-2.279,0-3.988.57-4.843,1.567s-1.282,2.849-1.282,5.7.427,4.7,1.282,5.7,2.564,1.567,4.843,1.567A48.108,48.108,0,0,0,156.459,30.6Z" transform="translate(58.473 5.007)" fill="#323e48"/><path d="M154.4,14.209V7.8h5.555v6.552h6.409V18.34h-6.409V29.735c0,1,.142,1.709.57,1.994a2.957,2.957,0,0,0,2.137.57h3.134l.57,4.131a17.708,17.708,0,0,1-5.84.712,6.014,6.014,0,0,1-4.558-1.709,7.056,7.056,0,0,1-1.567-4.843V14.209Z" transform="translate(65.517 3.31)" fill="#323e48"/><g transform="translate(170.92 16.807)"><path d="M131.964,31.171a7.512,7.512,0,0,1-4.415-1c-.855-.712-1.424-1.994-1.709-3.988L125.7,22.34q0-3.418,1.282-4.7c.712-.855,2.136-1.282,4.131-1.282a7.032,7.032,0,0,1,3.561.712c.712.427,1,1.282,1,2.564,0,1.709-.712,2.564-1.994,2.564h-3.846v3.846h5.412q5.982,0,5.982-6.409a7.207,7.207,0,0,0-2.421-5.84c-1.567-1.282-4.273-1.994-7.834-1.994-3.846,0-6.694.855-8.4,2.706C120.855,16.215,120,19.349,120,23.764c0,4.273.855,7.407,2.564,9.116,1.709,1.852,4.558,2.706,8.688,2.706s7.122-.57,9.258-1.567l-.57-3.561A58.785,58.785,0,0,1,131.964,31.171Z" transform="translate(-120 -11.8)" fill="#323e48"/></g><path d="M27.636,11.167A3.134,3.134,0,1,0,24.5,8.034,2.989,2.989,0,0,0,27.636,11.167Z" transform="translate(10.393 2.079)" fill="#0091ff"/><path d="M21.907,14.7a3.161,3.161,0,0,0-3.134,3.134,2.737,2.737,0,0,0,.57,1.709L16.78,22.107a3.49,3.49,0,0,0-1.709-.57,3.161,3.161,0,0,0-3.134,3.134,2.737,2.737,0,0,0,.57,1.709L9.943,28.943a3.49,3.49,0,0,0-1.709-.57,3.134,3.134,0,1,0,3.134,3.134A2.737,2.737,0,0,0,10.8,29.8l2.564-2.564a3.49,3.49,0,0,0,1.709.57A3.161,3.161,0,0,0,18.2,24.67a2.737,2.737,0,0,0-.57-1.709L20.2,20.4a3.49,3.49,0,0,0,1.709.57,3.134,3.134,0,1,0,0-6.267Z" transform="translate(2.164 6.238)" fill="#0091ff"/><path d="M3.134,20.226a3.161,3.161,0,0,0,3.134-3.134,2.737,2.737,0,0,0-.57-1.709L8.4,12.819a3.49,3.49,0,0,0,1.709.57,3.161,3.161,0,0,0,3.134-3.134,2.737,2.737,0,0,0-.57-1.709L15.24,5.982a3.49,3.49,0,0,0,1.709.57,3.161,3.161,0,0,0,3.134-3.134A3.045,3.045,0,0,0,17.092,0a3.161,3.161,0,0,0-3.134,3.134,2.737,2.737,0,0,0,.57,1.709L11.822,7.407a3.038,3.038,0,0,0-1.709-.427,3.161,3.161,0,0,0-3.134,3.134,3.038,3.038,0,0,0,.427,1.709L4.843,14.386a3.038,3.038,0,0,0-1.709-.427,3.134,3.134,0,1,0,0,6.267Z" fill="#0091ff"/><path d="M29.713,24.4a3.161,3.161,0,0,0-3.134,3.134,2.737,2.737,0,0,0,.57,1.709l-2.706,2.706a3.49,3.49,0,0,0-1.709-.57,3.134,3.134,0,1,0,3.134,3.134A2.737,2.737,0,0,0,25.3,32.8l2.564-2.564a3.49,3.49,0,0,0,1.709.57A3.161,3.161,0,0,0,32.7,27.676,3,3,0,0,0,29.713,24.4Z" transform="translate(8.317 10.354)" fill="#0091ff"/><path d="M19.87,24.4a3.161,3.161,0,0,0-3.134,3.134,2.737,2.737,0,0,0,.57,1.709l-2.564,2.564a3.49,3.49,0,0,0-1.709-.57,3.134,3.134,0,1,0,3.134,3.134,2.737,2.737,0,0,0-.57-1.709L18.161,30.1a3.49,3.49,0,0,0,1.709.57,3.134,3.134,0,1,0,0-6.267Z" transform="translate(4.201 10.354)" fill="#0091ff"/><path d="M29.3,5.84a3.49,3.49,0,0,0,1.709.57,3.161,3.161,0,0,0,3.134-3.134A3.194,3.194,0,0,0,31.011,0a3.161,3.161,0,0,0-3.134,3.134,2.737,2.737,0,0,0,.57,1.709L25.883,7.407a3.49,3.49,0,0,0-1.709-.57A3.161,3.161,0,0,0,21.041,9.97a2.737,2.737,0,0,0,.57,1.709l-2.564,2.564a3.49,3.49,0,0,0-1.709-.57A3.161,3.161,0,0,0,14.2,16.807a2.737,2.737,0,0,0,.57,1.709l-2.991,2.849a3.49,3.49,0,0,0-1.709-.57A3.161,3.161,0,0,0,6.94,23.929a2.737,2.737,0,0,0,.57,1.709L4.946,28.2a3.49,3.49,0,0,0-1.709-.57A3.161,3.161,0,0,0,.1,30.766a3.045,3.045,0,0,0,2.991,3.418A3.161,3.161,0,0,0,6.228,31.05a2.737,2.737,0,0,0-.57-1.709l2.564-2.564a3.49,3.49,0,0,0,1.709.57,3.161,3.161,0,0,0,3.134-3.134,2.737,2.737,0,0,0-.57-1.709l2.564-2.564a3.49,3.49,0,0,0,1.709.57A3.161,3.161,0,0,0,19.9,17.377a2.737,2.737,0,0,0-.57-1.709l2.991-2.849a3.49,3.49,0,0,0,1.709.57,3.161,3.161,0,0,0,3.134-3.134,2.737,2.737,0,0,0-.57-1.709Z" transform="translate(0.04)" fill="#0091ff"/></svg>